<svg xmlns="http://www.w3.org/2000/svg"  viewBox="0 0 100 100" width="500px" height="500px"><path fill="#ee3e54" d="M13 27A2 2 0 1 0 13 31A2 2 0 1 0 13 27Z"/><path fill="#f1bc19" d="M77 12A1 1 0 1 0 77 14A1 1 0 1 0 77 12Z"/><path fill="#fce0a2" d="M50 13A37 37 0 1 0 50 87A37 37 0 1 0 50 13Z"/><path fill="#f1bc19" d="M83 11A4 4 0 1 0 83 19A4 4 0 1 0 83 11Z"/><path fill="#ee3e54" d="M87 22A2 2 0 1 0 87 26A2 2 0 1 0 87 22Z"/><path fill="#fbcd59" d="M81 74A2 2 0 1 0 81 78 2 2 0 1 0 81 74zM15 59A4 4 0 1 0 15 67 4 4 0 1 0 15 59z"/><path fill="#ee3e54" d="M25 85A2 2 0 1 0 25 89A2 2 0 1 0 25 85Z"/><path fill="#fff" d="M18.5 51A2.5 2.5 0 1 0 18.5 56A2.5 2.5 0 1 0 18.5 51Z"/><path fill="#f1bc19" d="M21 66A1 1 0 1 0 21 68A1 1 0 1 0 21 66Z"/><path fill="#fff" d="M80 33A1 1 0 1 0 80 35A1 1 0 1 0 80 33Z"/><g><path fill="#f4989e" d="M35,72.3c-4.025,0-7.3-3.274-7.3-7.3V35c0-4.025,3.274-7.3,7.3-7.3h30c4.025,0,7.3,3.274,7.3,7.3 v30c0,4.025-3.274,7.3-7.3,7.3H35z"/><path fill="#472b29" d="M65,28.4c3.639,0,6.6,2.961,6.6,6.6v30c0,3.639-2.961,6.6-6.6,6.6H35c-3.639,0-6.6-2.961-6.6-6.6 V35c0-3.639,2.961-6.6,6.6-6.6H65 M65,27H35c-4.4,0-8,3.6-8,8v30c0,4.4,3.6,8,8,8h30c4.4,0,8-3.6,8-8V35C73,30.6,69.4,27,65,27 L65,27z"/></g><g><path fill="#fdfcee" d="M63.5,69h-27c-3.038,0-5.5-2.462-5.5-5.5v-27c0-3.038,2.462-5.5,5.5-5.5h27 c3.038,0,5.5,2.462,5.5,5.5v27C69,66.538,66.538,69,63.5,69z"/></g><g><path fill="#ee3e54" d="M44.924,48.066v3.431c0,0,3.324-0.007,4.681-0.007c-0.736,2.22-1.873,3.431-4.681,3.431 c-2.842,0-5.056-2.3-5.056-5.143c0-2.842,2.22-5.143,5.056-5.143c1.504,0,2.474,0.528,3.364,1.264 c0.716-0.716,0.655-0.816,2.467-2.528c-1.538-1.397-3.585-2.253-5.825-2.253c-4.782,0-8.661,3.879-8.661,8.661 s3.879,8.661,8.661,8.661c7.149,0,8.895-6.226,8.313-10.373C51.551,48.066,44.924,48.066,44.924,48.066z M60.532,48.234V45.23 h-2.14v3.003H55.31v2.14h3.083v3.083h2.14v-3.083h3.003v-2.14H60.532z"/><path fill="#472b29" d="M44.93,58.94c-5.051,0-9.161-4.109-9.161-9.161c0-5.051,4.109-9.16,9.161-9.16 c2.281,0,4.47,0.847,6.161,2.383l0.4,0.363l-0.393,0.37c-1.175,1.11-1.543,1.523-1.868,1.888c-0.176,0.197-0.335,0.376-0.59,0.63 l-0.322,0.321l-0.35-0.289c-0.722-0.597-1.591-1.149-3.045-1.149c-2.555,0-4.556,2.039-4.556,4.643s2.001,4.643,4.556,4.643 c2.348,0,3.322-0.881,3.964-2.43l-4.464,0.007v-4.432l9.254,0.001l0.061,0.431c0.334,2.385-0.053,5.79-2.144,8.194 C50.01,58.016,47.767,58.94,44.93,58.94z M44.93,41.619c-4.5,0-8.161,3.66-8.161,8.16s3.661,8.161,8.161,8.161 c2.535,0,4.523-0.809,5.911-2.404c1.75-2.012,2.161-4.839,1.958-6.969l-7.375-0.001v2.43l4.874-0.006l-0.218,0.657 c-0.888,2.681-2.382,3.773-5.156,3.773c-3.116,0-5.556-2.479-5.556-5.643s2.44-5.643,5.556-5.643c1.525,0,2.539,0.515,3.317,1.091 c0.085-0.092,0.162-0.179,0.243-0.269c0.297-0.334,0.629-0.707,1.524-1.565C48.565,42.245,46.782,41.619,44.93,41.619z M61.032,53.956h-3.14v-3.083H54.81v-3.14h3.083V44.73h3.14v3.003h3.003v3.14h-3.003V53.956z M58.893,52.956h1.14v-3.083h3.003 v-1.14h-3.003V45.73h-1.14v3.003H55.81v1.14h3.083V52.956z"/></g><g><path fill="#472b29" d="M68.5,47.375c-0.276,0-0.5-0.224-0.5-0.5V43c0-0.276,0.224-0.5,0.5-0.5S69,42.724,69,43v3.875 C69,47.151,68.776,47.375,68.5,47.375z"/></g><g><path fill="#472b29" d="M68.5,40.5c-0.276,0-0.5-0.224-0.5-0.5v-2c0-0.276,0.224-0.5,0.5-0.5S69,37.724,69,38v2 C69,40.276,68.776,40.5,68.5,40.5z"/></g><g><path fill="#472b29" d="M64,69H36c-2.757,0-5-2.243-5-5V36c0-2.757,2.243-5,5-5h25.375c0.276,0,0.5,0.224,0.5,0.5 s-0.224,0.5-0.5,0.5H36c-2.206,0-4,1.794-4,4v28c0,2.206,1.794,4,4,4h28c2.206,0,4-1.794,4-4V49.625c0-0.276,0.224-0.5,0.5-0.5 s0.5,0.224,0.5,0.5V64C69,66.757,66.757,69,64,69z"/></g></svg>